HIERARCHY
ROOT Hips
{
	OFFSET	0.00	0.00	0.00
	CHANNELS 6 Xposition Yposition Zposition Zrotation Xrotation Yrotation
	JOINT LeftUpLeg
	{
		OFFSET	 0.126116	-0.014019	-0.065224
		CHANNELS 3 Zrotation Xrotation Yrotation
		JOINT LeftLeg
		{
			OFFSET	 0.000000	 0.000000	 0.569914
			CHANNELS 3 Zrotation Xrotation Yrotation
			JOINT LeftFoot
			{
				OFFSET	 0.000000	 0.000000	 0.544423
				CHANNELS 3 Zrotation Xrotation Yrotation
				JOINT LeftToeBase
				{
					OFFSET	 0.000000	 0.000000	 0.207117
					CHANNELS 3 Zrotation Xrotation Yrotation
					End Site
					{
						OFFSET	 0.000000	 0.000000	 0.207117
					}
				}
			}
		}
	}
	JOINT RightUpLeg
	{
		OFFSET	-0.124023	-0.008373	-0.065224
		CHANNELS 3 Zrotation Xrotation Yrotation
		JOINT RightLeg
		{
			OFFSET	 0.000000	 0.000000	 0.570047
			CHANNELS 3 Zrotation Xrotation Yrotation
			JOINT RightFoot
			{
				OFFSET	 0.000000	 0.000000	 0.544354
				CHANNELS 3 Zrotation Xrotation Yrotation
				JOINT RightToeBase
				{
					OFFSET	 0.000000	 0.000000	 0.207540
					CHANNELS 3 Zrotation Xrotation Yrotation
					End Site
					{
						OFFSET	 0.000000	 0.000000	 0.207540
					}
				}
			}
		}
	}
	JOINT Spine
	{
		OFFSET	 0.000184	-0.007763	 0.117403
		CHANNELS 3 Zrotation Xrotation Yrotation
		JOINT Spine1
		{
			OFFSET	 0.000000	 0.000000	 0.137269
			CHANNELS 3 Zrotation Xrotation Yrotation
			JOINT Spine2
			{
				OFFSET	 0.000000	 0.000000	 0.156879
				CHANNELS 3 Zrotation Xrotation Yrotation
				JOINT LeftShoulder
				{
					OFFSET	 0.080501	-0.002496	 0.160144
					CHANNELS 3 Zrotation Xrotation Yrotation
					JOINT LeftArm
					{
						OFFSET	 0.000000	 0.000000	 0.164363
						CHANNELS 3 Zrotation Xrotation Yrotation
						JOINT LeftForeArm
						{
							OFFSET	 0.000000	 0.000000	 0.364576
							CHANNELS 3 Zrotation Xrotation Yrotation
							JOINT LeftHand
							{
								OFFSET	 0.000000	 0.000000	 0.360812
								CHANNELS 3 Zrotation Xrotation Yrotation
								JOINT LeftHandIndex1
								{
									OFFSET	 0.000000	 0.000000	 0.086006
									CHANNELS 3 Zrotation Xrotation Yrotation
									JOINT LeftHandIndex2
									{
										OFFSET	 0.000000	 0.000000	 0.047236
										CHANNELS 3 Zrotation Xrotation Yrotation
										JOINT LeftHandIndex3
										{
											OFFSET	-0.004284	-0.000551	 0.038166
											CHANNELS 3 Zrotation Xrotation Yrotation
											End Site
											{
												OFFSET	-0.004284	-0.000551	 0.038166
											}
										}
									}
								}
							}
						}
					}
				}
				JOINT Neck
				{
					OFFSET	 0.000000	 0.000000	 0.176489
					CHANNELS 3 Zrotation Xrotation Yrotation
					JOINT Head
					{
						OFFSET	 0.000000	-0.001747	 0.077940
						CHANNELS 3 Zrotation Xrotation Yrotation
						End Site
						{
							OFFSET	 0.000000	-0.001747	 0.077940
						}
					}
				}
				JOINT RightShoulder
				{
					OFFSET	-0.080363	 0.000306	 0.159706
					CHANNELS 3 Zrotation Xrotation Yrotation
					JOINT RightArm
					{
						OFFSET	 0.000000	 0.000000	 0.164196
						CHANNELS 3 Zrotation Xrotation Yrotation
						JOINT RightForeArm
						{
							OFFSET	 0.000000	 0.000000	 0.365611
							CHANNELS 3 Zrotation Xrotation Yrotation
							JOINT RightHand
							{
								OFFSET	 0.000000	 0.000000	 0.360648
								CHANNELS 3 Zrotation Xrotation Yrotation
								JOINT RightHandIndex1
								{
									OFFSET	 0.000000	 0.000000	 0.069977
									CHANNELS 3 Zrotation Xrotation Yrotation
									JOINT RightHandIndex2
									{
										OFFSET	 0.000000	 0.000000	 0.052305
										CHANNELS 3 Zrotation Xrotation Yrotation
										JOINT RightHandIndex3
										{
											OFFSET	 0.009002	-0.000782	 0.042196
											CHANNELS 3 Zrotation Xrotation Yrotation
											End Site
											{
												OFFSET	 0.009002	-0.000782	 0.042196
											}
										}
									}
								}
							}
						}
					}
				}
			}
		}
	}
}
MOTION
Frames:    13
Frame Time: 0.03333334
-0.042817	 0.261381	 0.984061	 4.055970	 33.866650	-8.713991	-10.125920	-86.962490	 172.438400	 9.328091	-76.912980	 9.496210	-52.350800	 84.046360	 58.448070	-2.385832	 28.452790	-0.000001	 92.196440	-75.422780	-94.900740	-25.803930	-80.730380	-20.410260	 86.269840	 79.349880	-78.340400	 2.384659	 28.388700	-0.000001	 2.350940	 16.007870	-0.221080	-1.498995	 23.539790	-0.218054	-7.824397	-1.994383	 4.943091	-99.140320	 68.198940	 156.863400	 9.226836	-3.824892	-36.629920	-4.421639	 11.838070	-37.570240	-32.228710	-39.674320	-22.246980	-2.027600	 6.559038	 9.033609	-5.188889	 0.308190	 3.541030	-5.234859	 0.342567	 0.430617	 0.310836	 17.356740	-5.897367	-7.202726	-27.018370	-4.250911	 97.420210	 64.649160	-159.190400	-5.207794	 3.470500	 51.962960	-6.718509	 0.469462	 26.706400	 14.380350	-39.055820	 16.841740	 1.803333	 3.979147	-15.098590	 4.898592	 3.004813	-9.310344	 5.224449	 0.395017	 2.014677
-0.042628	 0.260365	 0.992877	 3.779647	 32.959670	-8.131014	-14.640640	-85.127460	 168.075900	 8.203831	-75.858700	 8.362894	-51.197520	 83.803600	 57.229970	-2.385832	 28.452790	-0.000001	 84.934650	-75.633490	-102.349000	-23.952110	-79.553830	-18.515550	 84.134830	 79.499180	-75.979480	 2.384659	 28.388700	-0.000001	 2.637820	 16.202110	-0.396819	-1.124727	 24.254670	-0.667052	-7.994538	-2.987685	 4.581920	-98.742480	 68.509920	 157.624000	 8.810559	-2.147234	-37.731640	-4.070660	 11.735860	-38.023170	-33.144220	-39.845900	-23.043590	-2.027600	 6.559038	 9.033609	-5.188889	 0.308190	 3.541030	-5.234859	 0.342567	 0.430617	-0.260767	 13.307740	-4.607388	-7.518154	-22.819990	-4.418575	 97.191250	 64.348080	-160.051700	-5.546043	 3.274662	 52.623620	-6.211247	 0.739212	 27.164330	 14.923670	-38.897480	 18.339090	 1.803333	 3.979147	-15.098590	 4.898592	 3.004813	-9.310344	 5.224449	 0.395017	 2.014677
-0.042062	 0.259475	 1.004190	 3.497955	 31.898950	-7.530993	-16.350860	-82.886600	 166.604700	 7.233502	-74.399580	 7.371380	-49.057400	 83.431500	 54.888220	-2.385832	 28.452790	-0.000001	 75.995850	-75.524250	-111.416200	-22.059390	-77.992870	-16.563570	 80.973600	 79.647080	-72.590320	 2.384659	 28.388700	-0.000001	 2.870947	 16.432950	-0.537000	-0.703287	 24.834350	-1.115955	-8.185439	-4.033184	 4.168769	-98.102150	 69.293680	 158.454500	 8.681585	 0.155051	-39.039200	-3.671484	 11.572180	-38.443730	-34.283210	-40.041030	-24.264320	-2.027600	 6.559038	 9.033609	-5.188889	 0.308190	 3.541030	-5.234859	 0.342567	 0.430617	-0.717453	 8.440806	-3.502231	-7.707264	-17.863830	-4.376164	 96.896870	 64.164340	-160.964800	-5.969332	 3.341248	 53.129380	-5.975538	 0.885509	 27.841140	 15.097570	-38.475100	 19.593140	 1.803333	 3.979147	-15.098590	 4.898592	 3.004813	-9.310344	 5.224449	 0.395017	 2.014677
-0.040869	 0.258961	 1.017099	 3.154257	 30.656060	-6.851330	-16.724320	-80.325640	 166.455900	 6.403907	-72.690490	 6.514282	-46.650740	 83.031230	 52.223630	-2.385833	 28.452760	 0.000004	 66.098590	-74.929630	-121.458800	-20.479970	-76.144110	-14.907650	 77.548330	 79.745290	-68.889920	 2.384659	 28.388700	-0.000001	 3.004965	 16.648030	-0.665516	-0.322207	 25.253360	-1.487472	-8.353182	-5.140566	 3.704672	-97.186710	 70.631410	 159.316500	 9.101339	 3.217479	-40.505700	-3.259166	 11.333060	-38.726190	-35.621280	-40.203360	-25.891910	-2.027600	 6.559038	 9.033609	-5.188889	 0.308190	 3.541030	-5.234859	 0.342567	 0.430617	-1.032967	 2.907055	-2.429074	-7.858514	-12.317970	-4.312190	 96.522750	 64.508190	-161.639000	-6.648543	 4.384356	 53.294640	-6.155528	 0.822120	 28.784180	 15.038970	-38.031860	 20.456480	 1.803333	 3.979147	-15.098590	 4.898592	 3.004813	-9.310344	 5.224449	 0.395017	 2.014677
-0.038959	 0.259407	 1.032089	 2.767211	 29.221570	-6.045769	-16.685920	-77.409300	 166.687300	 6.007808	-70.608900	 6.062722	-43.746520	 82.583860	 48.869000	-2.385833	 28.452760	 0.000004	 55.780110	-73.752580	-131.905900	-19.270390	-73.867550	-13.588960	 73.584320	 79.779750	-64.534830	 2.384659	 28.388700	-0.000001	 3.097290	 16.955620	-0.838174	 0.090096	 25.572430	-1.948267	-8.457867	-6.264999	 3.323447	-95.601230	 73.212860	 160.055100	 10.139860	 7.506888	-42.868000	-2.848348	 10.979570	-38.731020	-37.088790	-40.451130	-27.459090	-2.027600	 6.559038	 9.033609	-5.188889	 0.308190	 3.541030	-5.234859	 0.342567	 0.430617	-1.278109	-2.959902	-2.186552	-7.799676	-6.531342	-3.558401	 95.688970	 66.101570	-162.478900	-7.507257	 6.958524	 54.035150	-6.565411	 0.620164	 29.722840	 15.303750	-38.316590	 21.303160	 1.803333	 3.979147	-15.098590	 4.898592	 3.004813	-9.310344	 5.224449	 0.395017	 2.014677
-0.036204	 0.259316	 1.049828	 2.454831	 27.570130	-5.176071	-16.563010	-73.971760	 167.117300	 5.794236	-68.055760	 5.763943	-39.866400	 82.000760	 44.407690	-2.385833	 28.452750	 0.000004	 45.814530	-71.703900	-141.982000	-16.598630	-71.206010	-10.856650	 69.033020	 79.743130	-60.023610	 2.384659	 28.388700	-0.000001	 3.134510	 17.169650	-1.057962	 0.491242	 25.789360	-2.452037	-8.530753	-7.625984	 2.965883	-93.819200	 75.853070	 160.768900	 12.101480	 11.793540	-45.368450	-2.371504	 10.587600	-38.779180	-38.133600	-40.610570	-29.041500	-2.027600	 6.559038	 9.033609	-5.188889	 0.308190	 3.541030	-5.234859	 0.342567	 0.430617	-1.523084	-9.556282	-2.413463	-7.751332	-0.286020	-2.502706	 94.790890	 67.864780	-163.362600	-8.958593	 9.629293	 54.454230	-6.932506	 0.435626	 31.209800	 15.398390	-38.631070	 21.834360	 1.803333	 3.979147	-15.098590	 4.898592	 3.004813	-9.310344	 5.224449	 0.395017	 2.014677
-0.032294	 0.257176	 1.069617	 2.480179	 26.008840	-4.399247	-16.224780	-70.361470	 167.931800	 5.540659	-65.074830	 5.418332	-34.678450	 81.371240	 38.685110	-2.385833	 28.452750	 0.000004	 37.788540	-68.924260	-149.956900	-13.836740	-68.155260	-8.074986	 64.339200	 79.456470	-55.475620	 2.384659	 28.388700	-0.000001	 3.182641	 16.835230	-1.438403	 0.767505	 25.775630	-2.913658	-8.538412	-9.004267	 2.480338	-93.314340	 76.427540	 161.948200	 14.258300	 14.494020	-46.148020	-1.696211	 10.376960	-39.782640	-38.281380	-40.447560	-30.492240	-2.027600	 6.559038	 9.033609	-5.188889	 0.308190	 3.541030	-5.234859	 0.342567	 0.430617	-1.667977	-13.557530	-1.992801	-7.750325	 3.564507	-2.194506	 94.108280	 69.095310	-164.207500	-10.650440	 12.072430	 53.768150	-7.293796	 0.238681	 33.704350	 15.166470	-38.700160	 22.080360	 1.803333	 3.979147	-15.098590	 4.898592	 3.004813	-9.310344	 5.224449	 0.395017	 2.014677
-0.027319	 0.252875	 1.092229	 2.771609	 24.632780	-3.694945	-15.752930	-66.544560	 168.996500	 5.215514	-61.454860	 4.951069	-28.523140	 80.519970	 32.049380	-2.385833	 28.452750	 0.000004	 31.485420	-65.529430	-156.050400	-11.360530	-64.450070	-5.610637	 58.956670	 78.873640	-50.229000	 2.384659	 28.388700	-0.000001	 3.203136	 15.842140	-1.885827	 0.938422	 25.556470	-3.303699	-8.501865	-10.390730	 1.864881	-93.993390	 75.025260	 163.514000	 16.428010	 15.704400	-44.833720	-0.789974	 10.360790	-41.988110	-37.488320	-39.954960	-31.543940	-2.027600	 6.559038	 9.033609	-5.188889	 0.308190	 3.541030	-5.234859	 0.342567	 0.430617	-1.685807	-14.749900	-0.999015	-7.675552	 4.875550	-2.553646	 93.783690	 69.318400	-165.129800	-12.454060	 13.941590	 51.761580	-7.635663	 0.012065	 37.238920	 14.549190	-38.387950	 22.100530	 1.803333	 3.979147	-15.098590	 4.898592	 3.004813	-9.310344	 5.224449	 0.395017	 2.014677
-0.023381	 0.246675	 1.116931	 2.929343	 23.309900	-3.089156	-15.504140	-62.299110	 169.848300	 4.814370	-57.219050	 4.401456	-23.951500	 79.236370	 26.880780	-2.385833	 28.452750	 0.000004	 26.387210	-61.663680	-160.927200	-9.304080	-60.081530	-3.605292	 51.294920	 78.107610	-42.870340	 2.384659	 28.388700	-0.000001	 3.136699	 14.419460	-1.864237	 1.346006	 25.175750	-3.597140	-8.522439	-11.755200	 1.317523	-94.389060	 73.841750	 164.823000	 18.825270	 16.641700	-43.330680	 0.202689	 10.316770	-44.559460	-35.827610	-39.410760	-31.393970	-2.027600	 6.559038	 9.033609	-5.188889	 0.308190	 3.541030	-5.234859	 0.342567	 0.430617	-1.797773	-15.244990	-0.979782	-7.482437	 5.559866	-2.265326	 93.977020	 67.490340	-166.445000	-14.034630	 14.017060	 48.532830	-7.873703	-0.198222	 41.736100	 13.438110	-37.494600	 21.962720	 1.803333	 3.979147	-15.098590	 4.898592	 3.004813	-9.310344	 5.224449	 0.395017	 2.014677
-0.020424	 0.238864	 1.142799	 3.085026	 22.041520	-2.531414	-15.333770	-57.734510	 170.557900	 4.351058	-52.390010	 3.780061	-20.331700	 77.660960	 22.700610	-2.385833	 28.452750	 0.000004	 22.304370	-57.415210	-164.807900	-7.637040	-55.051610	-2.042024	 43.340190	 77.103620	-35.232840	 2.384659	 28.388700	-0.000001	 3.176556	 12.643630	-1.651613	 1.888099	 24.553170	-3.901926	-8.518621	-12.889470	 0.749867	-94.717680	 72.452060	 166.156800	 20.999590	 17.241100	-41.976780	 1.222088	 10.216320	-47.321600	-33.551790	-38.738080	-30.135990	-2.027600	 6.559038	 9.033609	-5.188889	 0.308190	 3.541030	-5.234859	 0.342567	 0.430617	-1.840556	-15.173100	-0.775595	-7.286889	 5.856326	-2.177138	 93.978680	 65.684240	-167.863800	-15.288810	 13.861060	 45.121440	-8.104102	-0.477390	 46.528030	 12.138180	-36.455740	 21.444910	 1.803333	 3.979147	-15.098590	 4.898592	 3.004813	-9.310344	 5.224449	 0.395017	 2.014677
-0.017810	 0.229734	 1.167169	 3.268162	 20.411190	-1.905893	-15.073860	-52.706840	 171.298800	 3.938000	-47.603920	 3.218652	-17.419720	 76.369660	 19.357740	-2.385833	 28.452750	 0.000004	 18.966550	-52.545230	-168.098400	-6.233985	-49.911250	-0.832193	 37.006050	 76.109360	-29.177790	 2.384659	 28.388700	-0.000001	 3.175501	 10.871670	-1.473483	 2.262583	 23.674170	-4.089234	-8.441042	-13.655850	 0.262469	-94.815770	 71.367130	 167.406000	 22.778470	 17.795390	-40.786910	 2.239395	 10.054600	-50.218760	-31.220290	-37.875580	-28.607760	-2.027600	 6.559038	 9.033609	-5.188889	 0.308190	 3.541030	-5.234859	 0.342567	 0.430617	-1.861150	-14.750450	-0.653258	-7.076219	 5.926821	-2.125309	 93.791320	 64.607200	-169.054000	-16.423660	 14.377500	 42.501880	-8.376278	-0.878644	 50.482110	 10.917910	-35.469750	 20.918880	 1.803333	 3.979147	-15.098590	 4.898592	 3.004813	-9.310344	 5.224449	 0.395017	 2.014677
-0.015534	 0.218577	 1.187528	 3.452006	 18.141430	-1.232334	-14.566180	-47.217720	 172.231700	 3.558766	-43.614160	 2.744472	-14.833820	 75.780060	 16.552420	-2.385833	 28.452750	 0.000004	 16.423420	-46.994770	-170.899800	-5.030799	-45.355070	 0.082160	 32.805550	 75.525490	-25.177860	 2.384659	 28.388700	-0.000001	 3.078530	 9.250812	-1.361234	 2.324338	 22.378330	-3.927244	-8.276252	-13.843480	-0.121148	-94.731140	 70.652870	 168.599500	 24.099410	 18.262040	-40.064410	 3.132093	 9.748899	-52.594510	-29.079040	-36.871420	-27.331580	-2.027600	 6.559038	 9.033609	-5.188889	 0.308190	 3.541030	-5.234859	 0.342567	 0.430617	-1.883727	-13.952110	-0.699523	-6.841910	 5.723397	-2.054664	 93.522550	 64.040470	-170.080500	-17.683030	 15.537150	 41.469620	-8.687716	-1.351225	 52.510140	 9.785168	-34.418780	 20.511430	 1.803333	 3.979147	-15.098590	 4.898592	 3.004813	-9.310344	 5.224449	 0.395017	 2.014677
-0.013294	 0.204051	 1.205348	 3.469924	 15.249060	-0.862232	-13.533610	-41.103700	 173.745900	 3.076119	-39.829170	 2.238689	-12.064730	 75.353940	 13.663750	-2.385833	 28.452750	 0.000004	 14.887910	-40.736230	-172.910400	-4.013393	-41.135310	 0.745313	 28.974880	 75.133930	-21.546360	 2.384659	 28.388700	-0.000001	 2.960436	 7.770349	-1.078270	 2.141151	 20.482090	-3.300258	-8.007109	-13.193550	-0.301014	-94.533350	 70.255200	 169.739800	 25.129830	 18.536330	-39.309760	 3.982435	 9.394084	-54.968010	-27.378800	-35.845860	-26.970080	-2.027600	 6.559038	 9.033609	-5.188889	 0.308190	 3.541030	-5.234859	 0.342567	 0.430617	-1.934060	-12.704470	-0.979447	-6.570523	 5.136772	-1.913997	 93.271000	 63.337280	-171.133000	-18.938390	 16.456050	 40.623470	-8.956434	-1.829485	 54.491250	 8.715137	-33.023630	 20.369490	 1.803333	 3.979147	-15.098590	 4.898592	 3.004813	-9.310344	 5.224449	 0.395017	 2.014677
